# xmcd
#
# Track frame offsets:
#	150
#	13242
#	25537
#	38810
#	47785
#	60155
#	72530
#	84165
#	105392
#	115917
#	125775
#	136272
#	149475
#	160717
#	172422
#	182607
#
# Disc length: 2576 seconds
#
# Revision: 0
# Processed by: cddbd v1.5.2PL0 Copyright (c) Steve Scherf et al.
# Submitted via: EZCDAudioConverter 3.0.3.2
#
DISCID=d90a0e10
DTITLE=Varios - Absolutamente Country
DYEAR=1999
DGENRE=Country
TTITLE0=Kenny Rogers - Ruby, don´t take your rote to town
TTITLE1=Johnny Cash - I walk the line
TTITLE2=Lynn Anderson - The rose garden
TTITLE3=Freddy Fender - Jambalaya
TTITLE4=Frankie Lane - High Noon
TTITLE5=Patsy Cline - Crazy
TTITLE6=Willie Nelson - Is there something in your mind
TTITLE7=Tanya Tucker - Baby I´m yours
TTITLE8=Duane Eddy - Rebel Ronser
TTITLE9=Carl Perkis - This old house
TTITLE10=Waylon Jennings - White lightning
TTITLE11=Dottie West - D.I.V.O.R.C.E
TTITLE12=Jim Reeves - Am I losing you
TTITLE13=Guy Mitchell - Heartaches by the number
TTITLE14=Poster Wagoner - Green, green grass of home
TTITLE15=Hank Locklin - Send me the pillow
EXTD=
EXTT0=
EXTT1=
EXTT2=
EXTT3=
EXTT4=
EXTT5=
EXTT6=
EXTT7=
EXTT8=
EXTT9=
EXTT10=
EXTT11=
EXTT12=
EXTT13=
EXTT14=
EXTT15=
PLAYORDER=
